<?xml version="1.0" encoding="utf-8"?>
<!-- Generator: Adobe Illustrator 23.0.1, SVG Export Plug-In . SVG Version: 6.00 Build 0)  -->
<svg version="1.1" id="Layer_1" xmlns="http://www.w3.org/2000/svg" xmlns:xlink="http://www.w3.org/1999/xlink" x="0px" y="0px"
	 viewBox="0 0 499.7 422.2" style="enable-background:new 0 0 499.7 422.2;" xml:space="preserve">
<style type="text/css">
	.back-img{fill:#5B7083;}
</style>
<title>back</title>
<path class="back-img" d="M499.7,211.1c0,8.9-3.6,16.9-9.4,22.8c-5.8,5.8-13.9,9.4-22.8,9.4H109.8l124,124c12.6,12.6,12.6,32.9,0,45.5
	c-6.3,6.3-14.5,9.4-22.7,9.4c-8.2,0-16.5-3.1-22.8-9.4L10,234.4c-0.2-0.2-0.4-0.4-0.5-0.5c-0.4-0.4-0.7-0.7-1.1-1.1
	c0,0,0-0.1-0.1-0.1c-0.4-0.4-0.7-0.8-1.1-1.2c-0.7-0.8-1.3-1.7-1.9-2.6c0,0,0,0,0-0.1c-0.3-0.4-0.6-0.9-0.9-1.3
	c-0.3-0.5-0.5-0.9-0.8-1.4c-0.3-0.5-0.5-0.9-0.7-1.4c-0.2-0.5-0.4-1-0.6-1.4c-0.2-0.4-0.3-0.9-0.5-1.3c0,0,0-0.1,0-0.1
	c-0.2-0.5-0.3-1-0.5-1.5c-1.8-6-1.8-12.4,0-18.3c0.3-1,0.6-2,1-3c0.6-1.5,1.3-2.9,2.1-4.2s1.7-2.7,2.8-4c0.7-0.8,1.4-1.6,2.2-2.4
	c0.3-0.3,0.6-0.6,0.9-0.9c0,0-0.1,0.1-0.1,0.1L188.4,9.4c12.6-12.6,32.9-12.6,45.5,0c6.3,6.3,9.4,14.5,9.4,22.8
	c0,8.2-3.1,16.5-9.4,22.7l-124,124h357.7C485.3,178.9,499.7,193.3,499.7,211.1z"/>
</svg>
