<svg id="Layer_1" data-name="Layer 1" xmlns="http://www.w3.org/2000/svg" viewBox="0 0 369.93 370"><defs><style>.bscscan{fill:#171717;}.bscscan-2{fill:#f0b90b;}</style></defs><title>bscscan</title><path class="bscscan" d="M369.25,175a22.22,22.22,0,0,0,5.33.58,185.22,185.22,0,0,1,46.66,9.94,185.35,185.35,0,0,1,102,87.84,179.07,179.07,0,0,1,11.32,25.88c3.2,9.27,1.41,17.85-4.62,25.58A278.4,278.4,0,0,1,487.27,368c-6.15,5.09-12.48,9.94-18.9,14.69-.47.35-.95,1.13-1.57.79s-.22-1.09-.22-1.65q0-54.13,0-108.28c0-4.58-1.15-8.67-4.35-12.07a14.41,14.41,0,0,0-10.46-4.84c-9.34-.15-18.69-.21-28,0-8.36.19-14.79,7.29-14.8,15.92q0,66.91.06,133.84c0,6.95-3.37,12-9.62,14.37-3.3,1.24-6.53,2.68-9.79,4.05-1.58.66-1.62.66-1.62-1.07v-92c0-6.58.06-13.15,0-19.72-.09-6.9-3.21-11.94-9.52-14.9a15.11,15.11,0,0,0-6.49-1.27c-8.52,0-17-.05-25.57,0-7.95.06-14.13,5-15.78,12.56a19.06,19.06,0,0,0-.27,4.2q0,60.25,0,120.51c0,5-1.74,9-5.87,11.9a15.41,15.41,0,0,1-5.11,2.13c-3,.76-6,1.46-9,2.25-.77.2-1.13.13-1-.75a9.71,9.71,0,0,0,0-1.08q0-48,0-95.9c0-5.28-1.78-9.75-6-13.13a16,16,0,0,0-10.35-3.49c-8.43,0-16.87-.08-25.3-.05-9.28,0-16,6.84-16,16.12q0,48.29,0,96.58a14,14,0,0,1-2.64,8.94,13.23,13.23,0,0,1-9.44,5.3c-6.12.66-12.24,1.52-18.39,1.84-9.43.5-16.91-3.32-21.8-11.45a171.39,171.39,0,0,1-16.05-36.21,186.56,186.56,0,0,1-7.24-32.87c-.37-2.82-.57-5.68-.84-8.52a6.11,6.11,0,0,0-.33-2V346.94a50.13,50.13,0,0,0,.36-6.12,98,98,0,0,1,2.3-17.32,172.76,172.76,0,0,1,6.46-23.87,198.14,198.14,0,0,1,8.23-20,184.79,184.79,0,0,1,20.91-33.8A182,182,0,0,1,234,223.42a187.65,187.65,0,0,1,24.06-18.82,191.55,191.55,0,0,1,26.52-14.34,180.73,180.73,0,0,1,33.47-11.18,135.16,135.16,0,0,1,21.14-3.51c3.31-.22,6.64-.41,10-.44.26,0,.54.08.77-.13Z" transform="translate(-175 -175)"/><path class="bscscan-2" d="M544.89,359.86a172.76,172.76,0,0,1-8.67,56.58,185.38,185.38,0,0,1-133.13,123.2,186.81,186.81,0,0,1-29.93,4.62c-3.79.28-7.6.32-11.4.63-4.25.35-8.5-.27-12.76-.48a172.47,172.47,0,0,1-28.25-3.87,183.77,183.77,0,0,1-68.27-30.24c-.28-.2-.77-.33-.69-.75s.65-.39,1-.44c16.31-2.53,32.52-5.55,48.58-9.36,12.58-3,25-6.5,37.33-10.39q23.68-7.46,46.53-17.19a445.93,445.93,0,0,0,55.4-28.34,364.52,364.52,0,0,0,44.62-31.72,315.26,315.26,0,0,0,41.21-41q8.91-10.74,16.83-22.21c.31-.45.51-1.33,1.14-1.13s.4,1,.41,1.59C544.91,352.88,544.89,356.37,544.89,359.86Z" transform="translate(-175 -175)"/></svg>