<svg id="Layer_1" data-name="Layer 1" xmlns="http://www.w3.org/2000/svg" viewBox="0 0 526.65 534.76"><title>comment</title><path d="M219.21,534.91c-14,0-23.85-11-24-26.83v-4.94c-.18-26.3-.37-53.53.15-81.13.16-7.65-.39-8.24-8.28-8.92-46.86-4.16-87.47-21.36-120.7-51.14C32.67,331.77,11.64,294.74,3.94,251.88-7,191.14,5.31,135.3,40.57,85.9,67.17,48.62,102.36,23,145.15,9.69,165.73,3.25,181.88.38,197.49.38h72c6.19,0,12.49-.07,17.28-.14h2.46c4.92-.09,10.05-.09,15-.09,22,0,45.56,1,69.44,8C413.92,20.05,446.91,40,471.74,67.36s41.61,62.13,50.2,103.62c15,72.57-5.46,139.36-61,198.52-19.27,20.47-41.9,36.5-63.79,52q-6.26,4.39-12.45,8.82c-39.53,28.4-80.53,55.3-120.18,81.31l-21.95,14.42a67.42,67.42,0,0,1-11.32,6.31l-.94.41h-.26a31.43,31.43,0,0,1-10.77,2.14h-.11Zm33.06-484a553,553,0,0,0-70.55,4.54c-38.25,5.17-70.41,24.66-95.55,57.94-26.71,35.3-37.49,75.81-32,120.39,5.37,44,26.87,78.69,63.92,103,26.54,17.44,58.28,25.92,99.89,26.67,16.94.34,25.88,8.19,26.56,23.33V387q-.06,35.08-.06,70v2.22q-.08,1.23,0,2.46l.27-.16c5.38-3.21,10.94-6.53,16-10.14,15.77-11.24,32.16-22.09,48-32.58l2.51-1.66c37.41-24.73,76.09-50.31,109.28-81.8,42.67-40.44,60.2-90,52.1-147.2-10.9-76.81-67.42-129.61-144-134.51-19.87-1.27-46.11-2.72-72.89-2.72Z" transform="translate(-0.07 -0.15)"/></svg>