<?xml version="1.0" encoding="utf-8"?>
<!-- Generator: Adobe Illustrator 23.0.1, SVG Export Plug-In . SVG Version: 6.00 Build 0)  -->
<svg version="1.1" id="Layer_1" xmlns="http://www.w3.org/2000/svg" xmlns:xlink="http://www.w3.org/1999/xlink" x="0px" y="0px"
	 viewBox="0 0 630.3 551" style="enable-background:new 0 0 630.3 551;" xml:space="preserve">
<title>heart</title>
<path d="M315,551l-0.2,0c-6.1-0.2-10.2-4.3-12.9-7l-0.3-0.3c-0.5-0.5-0.9-0.9-1.2-1.2c-11.2-9.3-22.5-18.7-33.5-27.8
	c-26.1-21.6-53.1-43.9-79.7-66.6c-35.1-29.9-76-65.9-112.5-107c-18.7-21-42-49.5-56.5-83.9C-1,211.6-4.4,166.9,8.2,124.5
	C17.5,92.7,33.1,66.3,54.5,46C76,25.8,103.3,11.9,135.7,4.6c13.3-3,27.1-4.6,40.8-4.6c42.5,0,81.8,15.7,116.7,46.5
	c7.2,6.3,13.9,13.1,20.5,19.7l1.9,1.9c4.6-4.8,9.8-10.2,15.1-15.2c23.1-22.1,47.4-36.8,74.2-44.8c17.1-5.2,34.9-7.8,52.7-7.8l0.6,0
	c33.1,0,65.3,9.4,93.1,27.2c28.6,18.4,50.8,44.7,64.3,75.9c10.6,24.3,15.1,51,13.8,81.7c-2,47.3-20.5,92-56.5,136.6
	c-28.9,35.8-61.7,66.8-92.9,94.8c-46.1,41.5-94.9,81.4-142,120l-6.1,5c-0.5,0.4-1.1,0.9-1.6,1.3c-0.1,0.1-0.5,0.4-1.6,1.5
	c-2.8,2.6-6.9,6.6-13.1,6.6H315z M175.5,57.6c-4.5,0-9.1,0.2-13.6,0.7c-42.7,4.4-73.8,26.2-92.6,64.9c-12.3,25.4-14.2,53.4-6,88.3
	c5.3,22.4,16.3,44.2,34.9,68.6c22.1,29.2,48.4,54.7,71.1,75.8c41.3,38.5,85.2,74.8,134.1,114.9c4,3.3,8.1,6.6,12.1,9.9l1.2-1
	c48.8-39.9,99.2-81.2,146.1-124.8c20-18.6,45.7-43.5,67.6-71.7c24.7-31.7,37.7-61.1,41-92.3c2.7-26-0.4-48.1-9.5-67.6
	c-19-40.6-59-65.8-104.3-65.8c-17.9,0-35.3,3.9-51.6,11.3c-17.8,8.2-34.2,21.2-52.9,42c-6.7,7.5-13.2,15-20.1,23
	c-3.1,3.6-6.2,7.2-9.3,10.8l-8.1,9.3l-8.2-9.3l-0.9-1.1c-0.2-0.2-0.4-0.5-0.6-0.7c-0.3-0.3-0.5-0.6-0.8-0.9c-4.5-5-8.9-10-13.4-15.1
	l-0.1-0.1c-9.5-10.8-19.3-22-29.6-32.1C236.7,70.1,207.6,57.6,175.5,57.6L175.5,57.6z"/>
</svg>
