<svg id="Layer_1" data-name="Layer 1" xmlns="http://www.w3.org/2000/svg" viewBox="0 0 219.06 33.44"><defs><style>.cls-1{fill:#ececec;}</style></defs><title>logo3</title><path class="cls-1" d="M29.07,103.92h6.34v32.16H30.59L16.81,116.42v19.66H10.47V103.92h4.82l13.78,19.59Z" transform="translate(-10.47 -103.28)"/><path class="cls-1" d="M86.81,131.87a16.88,16.88,0,0,1-23.68,0A16.72,16.72,0,0,1,75,103.28a16.77,16.77,0,0,1,11.85,28.59Zm-19.24-4.31a10.72,10.72,0,0,0,14.79,0,11.1,11.1,0,0,0,0-15.14,10.64,10.64,0,0,0-14.79,0,11.08,11.08,0,0,0,0,15.14Z" transform="translate(-10.47 -103.28)"/><path class="cls-1" d="M120.85,130h12.26v6.07h-18.6V103.92h6.34Z" transform="translate(-10.47 -103.28)"/><path class="cls-1" d="M177.12,136.08l-2-5.79H161.87l-1.93,5.79H153.1l11.25-32.16h7.86l11.34,32.16Zm-13.18-11.72H173l-4.64-13.13Z" transform="translate(-10.47 -103.28)"/><path class="cls-1" d="M222.69,136.08l-6.5-11.16h-4.8v11.16h-6.34V103.92h12.86a10.67,10.67,0,0,1,10.7,10.66,9.69,9.69,0,0,1-1.7,5.53,10.63,10.63,0,0,1-4.5,3.84l7.12,12.13Zm-11.3-26.23v9.51h6.52A4.06,4.06,0,0,0,221,118a4.86,4.86,0,0,0,1.28-3.38,4.73,4.73,0,0,0-1.28-3.35,4.08,4.08,0,0,0-3.08-1.38Z" transform="translate(-10.47 -103.28)"/></svg>