<svg id="Layer_1" data-name="Layer 1" xmlns="http://www.w3.org/2000/svg" viewBox="0 0 216.76 33.02"><defs><style>.cls-1{fill:#ececec;}</style></defs><title>logo2</title><path class="cls-1" d="M36.57,104.12v31.76H31.13L18.88,118.64v17.24H11.62V104.12h5.44l12.25,17.24V104.12Z" transform="translate(-11.62 -103.49)"/><path class="cls-1" d="M58.8,120a16.52,16.52,0,1,1,16.51,16.51A16.37,16.37,0,0,1,58.8,120Zm25.77,0a9.26,9.26,0,1,0-9.26,9.44A9,9,0,0,0,84.57,120Z" transform="translate(-11.62 -103.49)"/><path class="cls-1" d="M132.66,128.89v7h-18.6V104.12h7.26v24.77Z" transform="translate(-11.62 -103.49)"/><path class="cls-1" d="M173.49,130.89h-11.8l-1.59,5h-7.93L163,104.12h9.26L183,135.88h-7.94Zm-2.18-6.81-3.72-11.66-3.72,11.66Z" transform="translate(-11.62 -103.49)"/><path class="cls-1" d="M214.59,125.44h-3.45v10.44h-7.26V104.12h12.71A10.86,10.86,0,0,1,227.47,115a10.47,10.47,0,0,1-5.85,9.21l6.76,11.66h-7.8Zm-3.45-6.35h5.45a4.11,4.11,0,0,0,0-8.16h-5.45Z" transform="translate(-11.62 -103.49)"/></svg>