<svg id="Layer_1" data-name="Layer 1" xmlns="http://www.w3.org/2000/svg" viewBox="0 0 226 226"><defs><style>.cls-1{fill:#40d1da;}.cls-2{fill:#7646db;}.cls-3{fill:#ffb138;}.cls-4{fill:#633001;}.cls-5{fill:#d0874f;}.cls-6{fill:#fddb8f;}.cls-7{fill:#e2a969;}.cls-8{fill:#eab774;}</style></defs><title>pannkook</title><path class="cls-1" d="M467.69,325.66,360,387.68l-107.69-62a113,113,0,0,1,215.38,0Z" transform="translate(-247 -247)"/><path class="cls-2" d="M360,387.68V473A113.09,113.09,0,0,1,252.31,325.66Z" transform="translate(-247 -247)"/><path class="cls-3" d="M473,360A113,113,0,0,1,360,473V387.68l107.69-62A113,113,0,0,1,473,360Z" transform="translate(-247 -247)"/><path class="cls-4" d="M286.55,400.25a41.07,41.07,0,0,1-4-16.34c-.47-8-.41-17.08,2.69-24.62a43.38,43.38,0,0,1,9.25-13.75,57.94,57.94,0,0,1,4.92-4.48,7.67,7.67,0,0,0,.58-.56A83.72,83.72,0,0,1,311.87,333c1.15-.57,2.3-1.14,3.47-1.66a.76.76,0,0,0,.53-1c-.71-3.65-1.4-7.31-2.1-11q-1.69-9.36-3.38-18.72a1.48,1.48,0,0,0-.14-.32,21.75,21.75,0,0,1,1.15-11.1c.46-1.15,1-2.25,1.57-3.37A21.15,21.15,0,0,1,323.9,277a20.61,20.61,0,0,1,16.45,1.23,25,25,0,0,1,7.06,5.88,19.35,19.35,0,0,1,4,7.59,28.61,28.61,0,0,1,.52,4.13,40,40,0,0,1,.06,5c0,.33,0,.65,0,1,0,1.87.05,3.74-.08,5.61.16,4.17,0,8.34.08,12.52,0,1.8.36,2.07,2.16,1.92a74,74,0,0,1,11.91,0c1.53.12,2-.17,1.95-1.67-.08-6.88.23-13.76.22-20.65,0-3.71-.4-7.33,1.12-10.84a17.83,17.83,0,0,1,3.46-5,31.14,31.14,0,0,1,4.6-4.14,20,20,0,0,1,5.18-2.64,20.79,20.79,0,0,1,14.89.64,21,21,0,0,1,6.78,5,22.7,22.7,0,0,1,5,7.3l0,.08a19,19,0,0,1,1,7.42A73.86,73.86,0,0,1,408.77,308c-.63,3.38-1.29,6.75-1.87,10.14,0,.2-.07.41-.1.61-.07.43-.29.81-.35,1.23-.39,3.09-1.11,6.13-1.61,9.2-.23,1.37-.18,1.45,1.06,2a77.29,77.29,0,0,1,13.07,7.7c1.14,1.34,2.71,2.15,4,3.31a49,49,0,0,1,10.69,13,32.36,32.36,0,0,1,1.65,3.47,25.69,25.69,0,0,1,1.7,4.62q.54,2.88.89,5.79a83.06,83.06,0,0,1,.55,11.69,52.21,52.21,0,0,1-2.19,14.61c-2.87,9-9.68,15.75-17,21.36a71.57,71.57,0,0,1-11.54,7.11,99.59,99.59,0,0,1-29.4,9,118.52,118.52,0,0,1-28.72.91c-15.47-1.4-30.14-5.38-43.47-13.59a59.09,59.09,0,0,1-11-8.66c-.24-.24-.42-.57-.79-.66A42.48,42.48,0,0,1,286.55,400.25Z" transform="translate(-247 -247)"/><path class="cls-5" d="M288.92,374.71c-.51-8.67,2.56-16.07,8.11-22.54,6.39-7.47,14.56-12.4,23.52-16.15,2.59-1.07,2.61-1,2.1-3.83-2-10.85-4-21.71-6-32.56a14.53,14.53,0,0,1,13.76-17.44c6.94-.32,13.54,5.24,14.52,12.25a20.23,20.23,0,0,1,.2,2.91q0,15.34,0,30.69c0,1.57,0,1.57,1.58,1.37a110.14,110.14,0,0,1,26.85,0c1,.13,1.36-.08,1.35-1.18q-.06-15.75,0-31.51a14.34,14.34,0,0,1,28.66-1c.16,3.29-.73,6.42-1.3,9.6-1.7,9.44-3.47,18.87-5.25,28.3-.18,1,.08,1.37,1,1.73,8.57,3.31,16.44,7.76,23,14.32a34.56,34.56,0,0,1,9.8,17,30.53,30.53,0,0,1,.6,8.26c-.19.4-.05.83-.1,1.24,0,4.41-1.58,8.3-3.83,12-4.2,6.89-10.08,12-16.9,16.18a87.65,87.65,0,0,1-31,11.14A116.52,116.52,0,0,1,366,417c-2.49.13-5,.2-7.48.16a112.93,112.93,0,0,1-21.91-2.43,89.45,89.45,0,0,1-23.28-8.34,64.24,64.24,0,0,1-11.74-8,41.42,41.42,0,0,1-9.76-12A20.74,20.74,0,0,1,289,376,3.46,3.46,0,0,0,288.92,374.71Z" transform="translate(-247 -247)"/><path class="cls-6" d="M289.11,375.89a30.07,30.07,0,0,0,6,14.69c4.89,6.71,11.36,11.55,18.62,15.39A92.81,92.81,0,0,0,346,415.73a107.83,107.83,0,0,0,17.41.86c15.27-.57,30-3.58,43.57-10.85,7.36-3.93,13.84-8.93,18.68-15.84a30.34,30.34,0,0,0,5.49-13.78c.05-.18.12-.18.19,0,0,4.86.44,9.75-.82,14.56a35.44,35.44,0,0,1-10.43,16.89c-8.43,8-18.61,12.86-29.64,16.06a110.07,110.07,0,0,1-41.61,3.62,96.27,96.27,0,0,1-31.1-8.07c-8.72-4-16.56-9.22-22.4-17a30.29,30.29,0,0,1-6.49-19.37c.06-2.3,0-4.6.05-6.91l.11-.16Z" transform="translate(-247 -247)"/><path class="cls-7" d="M289.11,375.89l-.19,0v-1.16A1.62,1.62,0,0,1,289.11,375.89Z" transform="translate(-247 -247)"/><path class="cls-8" d="M431.36,376.11a.61.61,0,0,0-.19,0,1.62,1.62,0,0,1,.19-1.18Z" transform="translate(-247 -247)"/><path class="cls-4" d="M340.3,369.46a14.78,14.78,0,0,1-2.5,8.75c-2.84,4.1-7.4,4.3-10.45.36-2.53-3.26-3.12-7.08-2.73-11.09a13.36,13.36,0,0,1,2.79-7.33c3.08-3.8,7.46-3.64,10.31.36A14.7,14.7,0,0,1,340.3,369.46Z" transform="translate(-247 -247)"/><path class="cls-4" d="M395,369.5c-.16,3.56-.87,7-3.51,9.81s-6.39,2.82-9-.15c-2.88-3.25-3.58-7.19-3.26-11.37a14.31,14.31,0,0,1,2.29-6.93c3-4.54,7.93-4.6,11-.12A15.94,15.94,0,0,1,395,369.5Z" transform="translate(-247 -247)"/></svg>