<svg id="Layer_1" data-name="Layer 1" xmlns="http://www.w3.org/2000/svg" viewBox="0 0 238 238"><defs><style>.poocoin{fill:#fff;}.poocoin-2{fill:#885742;}.poocoin-3{fill:#35220b;}</style></defs><title>poocoin</title><path class="poocoin" d="M254,248V486H492V248ZM472.85,430.8c-10.93,19.94-29,31-49.63,38.51-14.89,5.43-30.36,7.5-52.22,7.31a188.8,188.8,0,0,1-62.51-13.15c-20-8.12-33.42-22.47-39-43.45-2.6-9.79-1.71-19.64,1.56-29.3,4-11.73,13.3-17.39,24-21.29,4.28-1.55,5.42-3.51,4.28-7.93-4.47-17.18,5.1-39.39,25.34-43.32,3.75-.72,4.51-2.81,4.3-6.38-1.41-22.77,10.4-38.8,27.43-51.71,6.77-5.13,9.31-3.61,10.71,4.75,3,18.28,8.48,23.86,26.68,27.77,6.19,1.34,12.49,2.54,18.39,4.74,14,5.24,20,17.16,15.9,31.45-1.24,4.29-.14,5.67,3.64,7.51,12.22,6,20.44,14.86,19.23,29.81-.11,1.51,1.66,4,3.18,4.71C477.14,382.18,485.38,407.9,472.85,430.8Z" transform="translate(-254 -248)"/><path class="poocoin-2" d="M454.12,370.83c-1.52-.75-3.29-3.2-3.18-4.71,1.21-14.95-7-23.82-19.23-29.81-3.78-1.84-4.88-3.22-3.64-7.51,4.13-14.29-1.9-26.21-15.9-31.45-5.9-2.2-12.2-3.4-18.39-4.74-18.2-3.91-23.65-9.49-26.68-27.77-1.4-8.36-3.94-9.88-10.71-4.75C339.36,273,327.55,289,329,311.8c.21,3.57-.55,5.66-4.3,6.38-20.24,3.93-29.81,26.14-25.34,43.32,1.14,4.42,0,6.38-4.28,7.93-10.71,3.9-20,9.56-24,21.29-3.27,9.66-4.16,19.51-1.56,29.3,5.6,21,19,35.33,39,43.45A188.8,188.8,0,0,0,371,476.62c21.86.19,37.33-1.88,52.22-7.31,20.63-7.52,38.7-18.57,49.63-38.51C485.38,407.9,477.14,382.18,454.12,370.83Zm-135,6.47c0-13,11.07-24,23.94-23.87a24.08,24.08,0,0,1,23.48,23.7,22.67,22.67,0,0,1-.46,4.61A24.1,24.1,0,0,1,342.68,401a22.18,22.18,0,0,1-7.69-1.43C326,396.16,319.12,387.2,319.16,377.3ZM417,418.53h0c-.22,20.21-19.86,36.55-44,36.55s-43.85-16.37-44-36.62c-.18-.27-.37-.55-.56-.8l.57-.27c1.82-1,3.74-2.51,5.38-2.25a239.3,239.3,0,0,0,77.4-.08c1.57-.27,3.5,1.59,5.29,2.69l.41.23C417.31,418.16,417.17,418.34,417,418.53Zm-6.06-19a22.2,22.2,0,0,1-7.63,1.46,24,24,0,0,1-23.49-19.22,23.35,23.35,0,0,1-.46-4.53,23.91,23.91,0,0,1,23.35-23.78c12.85-.23,24,10.78,24,23.76C426.84,387.12,420.05,396.09,411,399.5Z" transform="translate(-254 -248)"/><path class="poocoin" d="M426.79,377.19c.07,12.56-10.82,23.6-23.43,23.77a23.77,23.77,0,0,1-.61-47.53C415.6,353.21,426.73,364.21,426.79,377.19Zm-23.63-10.88a10.68,10.68,0,0,0-10.62,10.56c-.11,5.79,4.51,10.94,10.07,11.21s11-5,11-10.93A11,11,0,0,0,403.16,366.31Z" transform="translate(-254 -248)"/><path class="poocoin" d="M342.68,401c-12.58-.06-23.57-11.12-23.52-23.68,0-13,11.07-24,23.94-23.86a23.77,23.77,0,0,1-.42,47.54Zm.33-34.66a10.77,10.77,0,0,0-10.64,10.58c-.13,6.1,4.81,11.29,10.68,11.21,5.46-.08,10.38-5.26,10.39-11A10.86,10.86,0,0,0,343,366.31Z" transform="translate(-254 -248)"/><path class="poocoin" d="M417.45,418c-.14.17-.28.35-.41.54h0c-.93,1.28-1.71,2.79-3,3.45-12.64,6.72-26.32,9.49-41,10.06-13.87-.57-27.86-2.93-40.76-9.6-1.42-.73-2.31-2.48-3.33-4-.18-.27-.37-.55-.56-.8l.57-.27c1.82-1,3.74-2.51,5.38-2.25a239.3,239.3,0,0,0,77.4-.08c1.57-.27,3.5,1.59,5.29,2.69Z" transform="translate(-254 -248)"/><path class="poocoin-3" d="M403.16,366.31a11,11,0,0,1,10.44,10.84c0,6-5.28,11.2-11,10.93s-10.18-5.42-10.07-11.21A10.68,10.68,0,0,1,403.16,366.31Z" transform="translate(-254 -248)"/><path class="poocoin-3" d="M343,366.31a10.86,10.86,0,0,1,10.43,10.84c0,5.69-4.93,10.87-10.39,11-5.87.08-10.81-5.11-10.68-11.21A10.77,10.77,0,0,1,343,366.31Z" transform="translate(-254 -248)"/><path class="poocoin-3" d="M417,418.54c-.22,20.21-19.86,36.55-44,36.55s-43.85-16.37-44-36.62c1,1.5,1.91,3.25,3.33,4,12.9,6.67,26.89,9,40.76,9.6,14.71-.57,28.39-3.34,41-10.06C415.33,421.33,416.11,419.82,417,418.54Z" transform="translate(-254 -248)"/></svg>