<?xml version="1.0" encoding="utf-8"?>
<!-- Generator: Adobe Illustrator 23.0.1, SVG Export Plug-In . SVG Version: 6.00 Build 0)  -->
<svg version="1.1" id="Layer_1" xmlns="http://www.w3.org/2000/svg" xmlns:xlink="http://www.w3.org/1999/xlink" x="0px" y="0px"
	 viewBox="0 0 64 64" style="enable-background:new 0 0 64 64;" xml:space="preserve">
<style type="text/css">
	.send-comment-img{fill:#2196F3;}
</style>
<title>send-comment</title>
<path class="send-comment-img" d="M45.1,31.9c-11.1-1.7-22.3-3.4-33.5-4.9c-1.9-0.1-3.6-1.4-4.1-3.2c-2.3-6.5-4.7-13-7.2-19.5
	c-0.5-1.3-0.7-2.6,0.5-3.6s2.3-0.7,3.5-0.1c19.2,9.6,38.5,19.3,57.7,28.9c1,0.5,1.7,1.5,1.9,2.6c-0.2,1.1-0.9,2.1-1.9,2.6
	C43,44.3,23.9,53.9,4.7,63.4c-1.3,0.6-2.4,1-3.7-0.1c-1.2-1.1-1-2.3-0.5-3.6C2.9,53.8,5.3,48,7.5,42.1c0.6-1.9,2.2-3.2,4.2-3.4
	c10.5-2,21-4,31.5-6.1c0.7-0.1,1.3-0.3,2-0.4L45.1,31.9z"/>
</svg>
