<svg id="Layer_1" data-name="Layer 1" xmlns="http://www.w3.org/2000/svg" viewBox="0 0 63.99 64"><defs><style>.adminsvg{fill:#2196f3;}.adminsvg2{fill:#fefefe;}</style></defs><title>admin</title><path class="adminsvg" d="M30.69,0h2.45c.42.09.86.07,1.29.12A9.4,9.4,0,0,1,39.17,2.3a12,12,0,0,1,3,3.39c.41.66.56.69,1.32.5a11,11,0,0,1,9.92,1.9,12.14,12.14,0,0,1,4.87,8.43,13.91,13.91,0,0,1-.28,5c-.19.72-.12.88.52,1.27a12,12,0,0,1,5.2,7A11,11,0,0,1,64,32.45a21.09,21.09,0,0,1-.13,3.81,10.75,10.75,0,0,1-2.09,4.79,10.16,10.16,0,0,1-2.66,2.65,1.57,1.57,0,0,0-.75,1.53,11.63,11.63,0,0,1-1.06,5.7c-2,4-5.07,6.67-9.68,7.16a11,11,0,0,1-4.11-.37c-.83-.24-.93-.17-1.38.56a12.42,12.42,0,0,1-6.62,5.35,9.84,9.84,0,0,1-2.59.33,16.38,16.38,0,0,1-3.57-.13,9.63,9.63,0,0,1-4.92-2.48,11.83,11.83,0,0,1-2.7-3.27.78.78,0,0,0-1-.42,12.74,12.74,0,0,1-3.37.46,10.89,10.89,0,0,1-6.95-2.42,12.24,12.24,0,0,1-4.7-8A9.07,9.07,0,0,1,5.54,45,1.1,1.1,0,0,0,5,43.82a12,12,0,0,1-3.22-3.37,9.65,9.65,0,0,1-1.7-5.63.29.29,0,0,0,0-.2V32.28c.08-.49.07-1,.11-1.47a10.66,10.66,0,0,1,2.5-5.52,10.64,10.64,0,0,1,2.84-2.46c.62-.4.68-.56.5-1.28a12.37,12.37,0,0,1,2.09-11A11.46,11.46,0,0,1,20.42,6.19c.87.24.95.2,1.42-.57a12.65,12.65,0,0,1,5.82-5A8.2,8.2,0,0,1,30.38.05C30.48,0,30.6.08,30.69,0Z" transform="translate(-0.01 0)"/><path class="adminsvg2" d="M28.76,45.16a3.09,3.09,0,0,1-1-.17,4.27,4.27,0,0,1-1.62-1.07L19,36.84a3.3,3.3,0,0,1-1-2.38A3.11,3.11,0,0,1,20,31.53a3.35,3.35,0,0,1,1.43-.33,3.15,3.15,0,0,1,2.24,1L27,35.5l1.16,1.15L38.94,20.47a3.44,3.44,0,0,1,2.87-1.68,3.6,3.6,0,0,1,1.11.19,3.24,3.24,0,0,1,1.93,4.47,5,5,0,0,1-.36.64L43,26.32,31.44,43.62A3.18,3.18,0,0,1,28.76,45.16Z" transform="translate(-0.01 0)"/></svg>