<svg id="Layer_1" data-name="Layer 1" xmlns="http://www.w3.org/2000/svg" viewBox="0 0 64 64"><defs><style>.cls-1{fill:#ececec;}</style></defs><title>close</title><path class="cls-1" d="M57.61,58.14a4.37,4.37,0,0,1-5.84-.4L32,38A0,0,0,0,0,32,38L12.23,57.74a4.37,4.37,0,0,1-5.84.4,4.22,4.22,0,0,1-.28-6.23L26,32A0,0,0,0,0,26,32L6.28,12.25A4.4,4.4,0,0,1,6.23,6a4.21,4.21,0,0,1,5.85.11L32,26A.06.06,0,0,0,32,26L51.74,6.28A4.41,4.41,0,0,1,58,6.22a4.22,4.22,0,0,1-.11,5.86L38,32A0,0,0,0,0,38,32L57.89,51.91A4.22,4.22,0,0,1,57.61,58.14Z"/></svg>