<svg id="Layer_1" data-name="Layer 1" xmlns="http://www.w3.org/2000/svg" viewBox="0 0 234.17 42.77"><defs><style>.cls-1{fill:#ececec;}.cls-2{fill:#e0245e;}</style></defs><title>logo</title><path class="cls-1" d="M69.49,128.06H65v13.51h-9.4V100.46H72.07a14.06,14.06,0,0,1,14.1,14.09,13.56,13.56,0,0,1-7.58,11.93l8.75,15.09H77.24ZM65,119.84h7c2.58,0,4.7-2.29,4.7-5.29s-2.12-5.28-4.7-5.28H65Z" transform="translate(-2.91 -99.63)"/><path class="cls-1" d="M88.81,126.89a15.57,15.57,0,1,1,15.57,15.51A15.4,15.4,0,0,1,88.81,126.89Zm22.33,0a6.76,6.76,0,1,0-6.76,6.93A6.59,6.59,0,0,0,111.14,126.89Z" transform="translate(-2.91 -99.63)"/><path class="cls-1" d="M123.77,126.89a15.53,15.53,0,0,1,28.84-8l-7.7,4.46a6.07,6.07,0,0,0-5.69-3.28,6.81,6.81,0,0,0,0,13.62,6,6,0,0,0,5.69-3.29l7.7,4.41a15,15,0,0,1-13.28,7.58A15.22,15.22,0,0,1,123.77,126.89Z" transform="translate(-2.91 -99.63)"/><path class="cls-1" d="M174.64,141.57l-9.4-13v13h-8.81V100.46h8.81v24.61l8.81-12.87h10.28l-10.69,14.69,11,14.68Z" transform="translate(-2.91 -99.63)"/><path class="cls-1" d="M201.31,134.53a7.65,7.65,0,0,0,5.64-2.24l7.05,4.06c-2.88,4-7.23,6.05-12.81,6.05-10,0-16.27-6.76-16.27-15.51s6.35-15.51,15.63-15.51c8.57,0,14.92,6.64,14.92,15.51a16.67,16.67,0,0,1-.36,3.52H194.26C195.38,133.47,198.08,134.53,201.31,134.53Zm5.4-10.7a6,6,0,0,0-6.22-4.64c-3.35,0-5.58,1.65-6.41,4.64Z" transform="translate(-2.91 -99.63)"/><path class="cls-1" d="M231,120.66v10.4c0,2.53,2.17,2.76,6.05,2.53v8c-11.52,1.18-14.87-2.29-14.87-10.51v-10.4h-4.7V112.2h4.7v-9.93L231,99.63V112.2h6.05v8.46Z" transform="translate(-2.91 -99.63)"/><path class="cls-2" d="M2.91,120.85v.34c19.68,22.65,41.92,20.48,41.92,20.48V100.36S22.59,98.2,2.91,120.85Zm25.56,7a7,7,0,1,1,7-7A7,7,0,0,1,28.47,127.8Z" transform="translate(-2.91 -99.63)"/></svg>