<svg id="Layer_1" data-name="Layer 1" xmlns="http://www.w3.org/2000/svg" viewBox="0 0 526.72 535"><title>comment</title><path d="M220.37,537c-11.52,0-19.32-9-19.41-22.38v-5c-.19-26.94-.38-54.79.15-82.59.21-10.46-2.34-13.24-13-14.17C141.48,408.73,101.06,391.63,68,362c-33.56-30-54.45-66.79-62.1-109.33C-5,192.19,7.24,136.54,42.38,87.3c26.46-37.07,61.44-62.58,104-75.8,20.47-6.4,36.46-9.26,51.86-9.26H263c1.45,0,2.89,0,4.32,0s2.84,0,4.26,0c6,0,12.05-.07,17.68-.15l2.43,0C296.75,2,301.94,2,307,2c22.08,0,45.77,1,69.36,7.92,40.15,11.9,73,31.73,97.67,58.94S515.42,130.68,524,172.12C539,244.45,518.47,311,463.13,370c-19.27,20.46-42.14,36.67-64.26,52.34q-6.36,4.47-12.7,9c-40.1,28.81-81.89,56.23-122.32,82.75l-22.43,14.73a63.16,63.16,0,0,1-10.74,6l-.19,0A27.51,27.51,0,0,1,220.37,537Zm20.72-72.46a30.63,30.63,0,0,0,.59,8.16l3,1.3,4-2.39c5.64-3.37,11.46-6.84,16.85-10.68,16.19-11.54,33.05-22.69,49.35-33.48l1.87-1.23c38.35-25.36,78-51.57,112.18-84,44.73-42.39,63.1-94.32,54.6-154.34C472.08,107.14,412.67,51.66,332.15,46.51c-20.34-1.3-47.21-2.79-74.61-2.79h-3.47a567.68,567.68,0,0,0-72.54,4.67c-40.41,5.46-74.29,26-100.73,61-28,37-39.35,79.52-33.63,126.31,5.66,46.4,28.32,82.92,67.36,108.56,27.89,18.32,61.08,27.21,104.46,28,9.16.18,21.41,2.33,22.16,19v.09q-.06,35.61-.06,71.24Z" transform="translate(-2.01 -1.97)"/></svg>