<svg id="Layer_1" data-name="Layer 1" xmlns="http://www.w3.org/2000/svg" viewBox="0 0 630.27 551"><title>heart</title><path d="M360.16,635.5c-4.41-.06-7.57-3.16-10.11-5.66-.7-.68-1.35-1.33-1.92-1.79q-17-14.14-34.05-28.23c-26.68-22.08-54.26-44.91-81.1-67.74-35.65-30.31-77.08-66.9-114.08-108.42C100.13,402.59,76.72,374,62.26,339.59c-19.1-45.44-22.48-89.84-10-131.95C61.54,176,77,149.92,98.11,130s48.23-33.75,80.28-40.91a185.8,185.8,0,0,1,40.44-4.61c42,0,80.87,15.52,115.52,46.14,7.31,6.46,14.26,13.47,21,20.25,1.68,1.69,3.4,3.43,5.13,5.16l2.78-2.89c5.16-5.35,10.49-10.87,16-16.17,22.94-22,47-36.53,73.55-44.48a182.07,182.07,0,0,1,52.27-7.74,171.1,171.1,0,0,1,92.7,26.93,168.73,168.73,0,0,1,63.54,75.08c10.47,24.06,14.92,50.55,13.6,81-2,47.11-20.51,91.67-56.46,136.21-29.26,36.26-62.51,67.56-94.08,96-47.6,42.86-97.94,84-146.63,123.85l-3.35,2.75-.67.55c-.5.42-1,.84-1.51,1.23s-1.3,1.13-2.05,1.85c-2.49,2.37-5.59,5.32-9.89,5.32ZM217.81,133.14a139.25,139.25,0,0,0-14.32.75c-45.27,4.67-78.33,27.85-98.27,68.91C92.15,229.71,90.08,259.33,98.7,296c5.52,23.46,17.08,46.25,36.4,71.73,22.66,29.9,49.6,56.12,73,77.82C250.6,485.1,295.17,522,344.84,562.74q6.59,5.41,13.19,10.8l2.32,1.89,3.53-2.89c50-40.93,101.75-83.26,149.85-128,20.48-19.05,46.88-44.63,69.37-73.55,25.73-33.09,39.31-63.77,42.73-96.55,2.87-27.37-.46-50.75-10.16-71.46-20.2-43.12-62.62-69.91-110.71-69.91a131.67,131.67,0,0,0-54.65,12c-18.83,8.68-35.95,22.25-55.52,44-6.91,7.69-13.54,15.37-20.55,23.49q-4.69,5.44-9.46,10.93l-4.52,5.19-4.53-5.18-.92-1.06c-.51-.59-1-1.12-1.44-1.64-4.6-5.09-9.19-10.31-13.63-15.37-9.75-11.1-19.83-22.58-30.45-33C282.69,146.38,251.91,133.14,217.81,133.14Z" transform="translate(-44.88 -84.5)"/></svg>